HIERARCHY
ROOT Hips
{
  OFFSET 0 0 0
  CHANNELS 6 Xposition Yposition Zposition Zrotation Xrotation Yrotation
  JOINT Spine
  {
    OFFSET 0.00000000 0.00000000 0.00000000
    CHANNELS 3 Zrotation Xrotation Yrotation
    JOINT Spine1
    {
      OFFSET 0.19000000 0.00000000 0.00000000
      CHANNELS 3 Zrotation Xrotation Yrotation
      JOINT Neck
      {
        OFFSET 0.22500000 0.00600000 0.00000000
        CHANNELS 3 Zrotation Xrotation Yrotation
        JOINT Head
        {
          OFFSET 0.14000000 0.00030878 0.00000000
          CHANNELS 3 Zrotation Xrotation Yrotation
          End Site
          {
            OFFSET 0.17000000 0.00000000 0.00000000
          }
        }
      }
      JOINT LeftShoulder
      {
        OFFSET 0.19800000 0.03700000 0.04300000
        CHANNELS 3 Zrotation Xrotation Yrotation
        JOINT LeftArm
        {
          OFFSET 0.08000000 0.00000000 0.00000000
          CHANNELS 3 Zrotation Xrotation Yrotation
          JOINT LeftForeArm
          {
            OFFSET 0.15200000 0.00000000 0.00000000
            CHANNELS 3 Zrotation Xrotation Yrotation
            JOINT LeftHand
            {
              OFFSET 0.17800000 0.00000000 0.00000000
              CHANNELS 3 Zrotation Xrotation Yrotation
              End Site
              {
                OFFSET 0.07200000 0.00000000 0.00000000
              }
            }
          }
        }
      }
      JOINT RightShoulder
      {
        OFFSET 0.19800000 0.03700000 -0.04300000
        CHANNELS 3 Zrotation Xrotation Yrotation
        JOINT RightArm
        {
          OFFSET 0.08000000 0.00000000 0.00151654
          CHANNELS 3 Zrotation Xrotation Yrotation
          JOINT RightForeArm
          {
            OFFSET 0.15200000 0.00000000 0.00000000
            CHANNELS 3 Zrotation Xrotation Yrotation
            JOINT RightHand
            {
              OFFSET 0.17800000 0.00000000 0.00000000
              CHANNELS 3 Zrotation Xrotation Yrotation
              End Site
              {
                OFFSET 0.07200000 0.00000000 0.00000000
              }
            }
          }
        }
      }
    }
  }
  JOINT LeftUpLeg
  {
    OFFSET 0.05984250 -0.07666000 0.04788790
    CHANNELS 3 Zrotation Xrotation Yrotation
    JOINT LeftLeg
    {
      OFFSET 0.16000000 0.00000000 0.00000000
      CHANNELS 3 Zrotation Xrotation Yrotation
      JOINT LeftFoot
      {
        OFFSET 0.18000000 0.00000000 0.00000000
        CHANNELS 3 Zrotation Xrotation Yrotation
        End Site
        {
          OFFSET 0.00000000 -0.10800000 0.00000000
        }
      }
    }
  }
  JOINT RightUpLeg
  {
    OFFSET 0.05984250 -0.07665980 -0.04788790
    CHANNELS 3 Zrotation Xrotation Yrotation
    JOINT RightLeg
    {
      OFFSET 0.16000000 0.00000000 0.00000000
      CHANNELS 3 Zrotation Xrotation Yrotation
      JOINT RightFoot
      {
        OFFSET 0.18000000 0.00000000 0.00000000
        CHANNELS 3 Zrotation Xrotation Yrotation
        End Site
        {
          OFFSET 0.00000000 -0.10800000 0.00000000
        }
      }
    }
  }
  JOINT Tail
  {
    OFFSET 0.06836960 -0.00722574 0.00000000
    CHANNELS 3 Zrotation Xrotation Yrotation
    JOINT Tail1
    {
      OFFSET 0.12000000 0.00000000 0.00000000
      CHANNELS 3 Zrotation Xrotation Yrotation
      End Site
      {
        OFFSET 0.12000000 0.00000000 0.00000000
      }
    }
  }
}
MOTION
Frames:	19
Frame Time:	0.0166667
-7.1457795 0.1770500 0.5748627 -35.1993 8.57367 13.3183 -115.518 4.43214 -6.89369 -60.4605 -0.022676 11.8383 -19.067 -3.09359 1.15006 -98.6438 79.7919 115.727 -110.562 -36.4724 -138.795 132.205 17.8052 -126.626 -61.7276 -28.1906 21.5412 4.96925 1.25416 -8.77091 73.8189 -31.1001 42.1868 40.4989 8.15905 -37.0365 -79.8559 17.3929 -21.5151 10.8867 0.91622 4.37088 -157.322 44.7982 -42.8727 -152.319 85.2697 -54.4611 -25.8839 -1.44658 15.7914 -164.266 -11.1592 24.1445 140.679 -20.8433 -2.3908 -25.7091 -2.89726 -3.54486 -13.9296 36.0706 6.4234 23.137 -57.3048 18.6678 
-7.1458300 0.1770700 0.5746989 -35.2342 8.54826 13.3494 -115.446 4.43666 -6.95814 -60.5318 -0.0699089 11.952 -18.9842 -3.21346 1.28919 -98.3647 79.8205 115.366 -110.515 -36.4104 -138.791 132.142 17.9091 -126.501 -61.6003 -28.3046 21.5826 5.0648 1.257 -8.80263 73.7888 -31.1153 42.1239 40.4305 8.17646 -36.9219 -79.8173 17.3701 -21.522 10.8989 0.916658 4.42188 -157.281 44.8767 -42.8848 -151.637 85.3085 -55.1382 -25.868 -1.44127 15.8185 -164.212 -11.1551 24.1177 140.678 -20.8172 -2.38683 -25.7463 -2.89811 -3.54419 -13.8655 36.0995 6.37724 23.1258 -57.3042 18.6638 
-7.1459004 0.1770200 0.5745721 -35.2012 8.50328 13.3651 -115.416 4.43364 -6.95802 -60.6313 -0.0999306 11.9675 -18.9046 -3.38168 1.49196 -98.1272 79.6512 115.191 -110.522 -36.3996 -138.831 132.199 17.9086 -126.526 -61.5766 -28.2231 21.5542 4.95869 1.26411 -8.86577 73.8579 -31.0263 42.143 40.297 8.18083 -36.8575 -79.7614 17.4792 -21.52 10.9644 0.908891 4.50792 -157.355 44.9032 -42.8221 -151.237 85.3296 -55.5134 -25.8837 -1.44022 15.8419 -164.218 -11.1722 24.1721 140.683 -20.7638 -2.38393 -25.7508 -2.89908 -3.54914 -13.8537 36.1389 6.34812 23.1127 -57.2733 18.6473 
-7.1458202 0.1769880 0.5746379 -35.1697 8.49607 13.3592 -115.378 4.40249 -6.95468 -60.7185 -0.132156 11.9516 -18.8626 -3.44329 1.66363 -98.2932 79.4332 115.418 -110.549 -36.4444 -138.814 132.219 17.9039 -126.54 -61.5465 -28.104 21.5175 4.86676 1.25877 -8.80148 73.8498 -31.0495 42.1702 40.3591 8.22335 -36.9412 -79.671 17.5002 -21.5427 10.9405 0.908475 4.47819 -157.43 44.8863 -42.7987 -151.223 85.3298 -55.5162 -25.8569 -1.43448 15.8477 -164.268 -11.1742 24.1149 140.691 -20.6323 -2.38361 -25.7769 -2.90018 -3.54076 -13.8801 36.146 6.35324 23.1087 -57.2672 18.6463 
-7.1458697 0.1769590 0.5747990 -35.1285 8.56492 13.3699 -115.394 4.41735 -6.97924 -60.7482 -0.116431 11.9686 -18.8605 -3.49577 1.83222 -98.3206 79.4289 115.398 -110.558 -36.4825 -138.764 132.131 17.9016 -126.484 -61.5588 -28.1579 21.5416 4.96905 1.25135 -8.76552 73.7508 -31.1699 42.1266 40.5376 8.2377 -36.932 -79.7255 17.4218 -21.5802 10.8971 0.922658 4.36611 -157.489 44.956 -42.808 -151.184 85.333 -55.5663 -25.8486 -1.43262 15.8666 -164.322 -11.1047 24.0684 140.671 -20.6196 -2.37776 -25.778 -2.90132 -3.53267 -13.9384 36.1154 6.32534 23.126 -57.304 18.6788 
-7.1460096 0.1769950 0.5748335 -35.1133 8.56084 13.3567 -115.382 4.44613 -6.93921 -60.7781 -0.0620026 11.9 -18.857 -3.60755 1.96717 -98.2322 79.3106 115.255 -110.576 -36.4934 -138.79 132.148 17.8825 -126.499 -61.5715 -28.2037 21.5445 5.02003 1.25288 -8.76376 73.8253 -31.0938 42.1933 40.4471 8.20217 -36.9523 -79.7794 17.4291 -21.5621 10.961 0.922569 4.38548 -157.383 44.9184 -42.8871 -150.505 85.3718 -56.2581 -25.8963 -1.44568 15.7796 -164.386 -11.0602 24.1561 140.687 -20.5908 -2.36372 -25.6777 -2.90243 -3.53008 -13.9562 36.1132 6.34193 23.0856 -57.3026 18.6418 
-7.1459997 0.1770350 0.5748054 -35.1594 8.54000 13.3392 -115.329 4.47872 -6.92571 -60.8114 -0.00405321 11.8594 -18.896 -3.69153 1.9709 -98.1058 79.0682 115.323 -110.54 -36.4095 -138.859 132.3 17.9429 -126.563 -61.5378 -28.0196 21.474 4.73437 1.26431 -8.75683 73.8504 -31.0785 42.2396 40.404 8.14036 -36.9473 -79.7517 17.4781 -21.5455 10.9824 0.91637 4.43456 -157.169 44.8986 -43.0105 -149.221 85.4435 -57.5666 -25.9615 -1.45935 15.7192 -164.312 -11.115 24.2241 140.702 -20.7427 -2.37526 -25.6693 -2.90344 -3.53415 -13.9025 36.0818 6.3822 23.0379 -57.2698 18.5886 
-7.1459295 0.1770620 0.5748662 -35.1280 8.57192 13.3214 -115.422 4.48307 -6.96841 -60.7375 -0.0165266 11.9232 -18.9582 -3.72517 1.99685 -98.1143 78.8989 115.485 -110.498 -36.3543 -138.857 132.309 17.8888 -126.607 -61.6083 -28.0702 21.4777 4.79113 1.27022 -8.81458 73.7747 -31.144 42.1446 40.4418 8.11945 -36.8371 -79.7733 17.4732 -21.5437 10.9425 0.91839 4.434 -157.241 44.8005 -43.0045 -149.583 85.4157 -57.2405 -25.9185 -1.4527 15.7186 -164.271 -11.1366 24.1291 140.644 -20.7283 -2.38583 -25.78 -2.90437 -3.52737 -13.948 36.0398 6.41268 23.0084 -57.2689 18.5582 
-7.1459792 0.1770620 0.5749344 -35.0733 8.62608 13.3278 -115.579 4.47041 -6.99624 -60.5792 -0.0586949 11.9963 -19.0264 -3.73824 2.18209 -98.2654 78.9107 115.592 -110.529 -36.4341 -138.784 132.128 17.7604 -126.607 -61.7335 -28.3358 21.5738 5.05804 1.26507 -8.84096 73.8153 -31.0664 42.0969 40.3119 8.12889 -36.8177 -79.8642 17.4346 -21.5181 10.939 0.919949 4.47238 -157.362 44.7736 -42.9679 -149.776 85.4008 -57.0744 -25.8947 -1.44745 15.7464 -164.353 -11.0629 23.9998 140.615 -20.4562 -2.36291 -25.7612 -2.90508 -3.53418 -14.0076 36.0241 6.3767 23.0002 -57.2996 18.5714 
-7.1460596 0.1770820 0.5748326 -35.1270 8.60654 13.3429 -115.541 4.45917 -7.00404 -60.5605 -0.0805349 12.0217 -18.985 -3.80085 2.39794 -98.3253 78.9722 115.419 -110.548 -36.4725 -138.757 132.055 17.7734 -126.556 -61.702 -28.345 21.5842 4.98392 1.26814 -8.82787 73.8017 -31.0874 42.1011 40.3797 8.13204 -36.8931 -79.854 17.4701 -21.5252 10.9323 0.921636 4.4926 -157.182 44.8341 -43.0519 -148.342 85.4825 -58.5276 -25.9724 -1.45975 15.7371 -164.285 -11.0475 24.0236 140.626 -20.4879 -2.36053 -25.761 -2.90555 -3.54526 -13.9328 36.0474 6.33257 23.0413 -57.2868 18.6108 
-7.1459800 0.1770870 0.5746944 -35.2062 8.51754 13.3267 -115.411 4.46229 -6.98998 -60.6517 -0.0725093 11.9982 -18.968 -3.97629 2.36512 -98.0993 78.4996 115.413 -110.528 -36.4098 -138.826 132.154 17.8167 -126.57 -61.6287 -28.1836 21.5168 4.84344 1.2726 -8.80804 73.7648 -31.1355 42.0926 40.4405 8.10188 -36.8235 -79.8005 17.4567 -21.5251 10.9222 0.922786 4.42515 -157.009 44.8158 -43.1147 -147.643 85.5185 -59.2186 -25.994 -1.46913 15.6999 -164.191 -11.1221 24.0787 140.682 -20.5627 -2.375 -25.7991 -2.90573 -3.55921 -13.8072 36.0854 6.32923 23.0578 -57.2042 18.5955 
-7.1459101 0.1770640 0.5746622 -35.1885 8.51315 13.3188 -115.376 4.49072 -6.95266 -60.7205 -0.0112787 11.919 -19.0181 -3.97732 2.20795 -98.2799 78.0102 115.886 -110.551 -36.4186 -138.871 132.22 17.786 -126.634 -61.6318 -28.1622 21.4965 4.84903 1.2752 -8.82042 73.7802 -31.1166 42.0989 40.4053 8.09876 -36.7495 -79.8194 17.4516 -21.5265 10.93 0.92247 4.40795 -157.051 44.857 -43.111 -148.132 85.4973 -58.7348 -25.9683 -1.46776 15.7261 -164.192 -11.1816 24.0047 140.7 -20.5813 -2.37737 -25.8472 -2.90557 -3.57797 -13.8142 36.1071 6.3014 23.0497 -57.1976 18.5878 
-7.1460403 0.1771410 0.5745936 -35.0924 8.50091 13.3078 -115.413 4.45989 -6.93139 -60.7662 -0.0512424 11.896 -18.9652 -3.74831 2.31818 -99.1648 78.096 116.441 -110.586 -36.4714 -138.859 132.217 17.7721 -126.687 -61.6256 -28.244 21.5329 4.98548 1.26771 -8.81078 73.8258 -31.0584 42.1124 40.348 8.14529 -36.7955 -79.8301 17.4666 -21.5307 10.96 0.919924 4.45034 -157.18 44.7788 -43.0741 -148.989 85.4563 -57.8883 -25.9427 -1.46336 15.6788 -164.269 -11.1921 23.9627 140.638 -20.548 -2.3785 -25.9101 -2.9051 -3.56966 -13.9396 36.1731 6.31387 23.0367 -57.2575 18.6061 
-7.1461309 0.1771810 0.5744249 -35.0939 8.43909 13.3211 -115.345 4.41627 -6.96534 -60.8473 -0.155915 11.9857 -18.9144 -3.64204 2.38205 -99.7801 77.9353 116.854 -110.555 -36.4677 -138.785 132.185 17.833 -126.591 -61.5168 -28.2716 21.532 5.03757 1.26825 -8.78009 73.8389 -31.0486 42.1325 40.2771 8.17628 -36.8755 -79.7275 17.4496 -21.531 10.9578 0.911364 4.52498 -157.19 44.7325 -43.0333 -148.592 85.4736 -58.2501 -25.9313 -1.45972 15.628 -164.317 -11.2014 24.0434 140.688 -20.5716 -2.37941 -25.8775 -2.90419 -3.56213 -13.9057 36.2251 6.30013 23.0403 -57.2371 18.6119 
-7.1460613 0.1771380 0.5742836 -35.1333 8.41317 13.3119 -115.221 4.43236 -7.0071 -60.9793 -0.14222 12.0164 -18.8488 -3.72784 2.22846 -99.8117 77.5248 116.782 -110.52 -36.4243 -138.778 132.159 17.9021 -126.451 -61.4261 -28.1605 21.4857 4.92265 1.26798 -8.70219 73.8179 -31.0938 42.1691 40.2654 8.15899 -36.881 -79.6405 17.4044 -21.5278 10.9188 0.912471 4.50245 -157.145 44.769 -43.0425 -148.284 85.486 -58.5322 -25.9442 -1.46065 15.6306 -164.294 -11.1694 24.0567 140.749 -20.5182 -2.37561 -25.8815 -2.90234 -3.55593 -13.823 36.2121 6.2808 23.0437 -57.1738 18.6045 
-7.1460413 0.1770920 0.5742976 -35.0709 8.42787 13.2671 -115.238 4.47426 -6.98312 -61.0409 -0.0460714 11.9232 -18.8027 -4.01863 2.3447 -99.2799 77.3178 116.21 -110.533 -36.3928 -138.872 132.274 17.8765 -126.564 -61.5018 -28.0272 21.4427 4.84445 1.26045 -8.6592 73.8064 -31.1032 42.1531 40.3036 8.1313 -36.7353 -79.7273 17.4199 -21.5345 10.9504 0.922309 4.41642 -157.243 44.7585 -43.0101 -149.299 85.4342 -57.5197 -25.9742 -1.46587 15.646 -164.299 -11.2335 24.0318 140.711 -20.6438 -2.38907 -25.8703 -2.89682 -3.54254 -13.9222 36.2129 6.32684 23.0118 -57.2006 18.5924 
-7.1460510 0.1771470 0.5743716 -35.0598 8.43269 13.2403 -115.284 4.46513 -6.94882 -60.9863 -0.0236114 11.8602 -18.7778 -4.25292 2.64921 -98.9311 77.2842 115.781 -110.531 -36.3867 -138.88 132.37 17.8305 -126.652 -61.5384 -28.0753 21.4273 4.91106 1.26743 -8.70051 73.7778 -31.0802 42.0066 40.2567 8.11527 -36.4625 -79.8618 17.3174 -21.5025 10.961 0.931544 4.33927 -157.249 44.7 -42.9874 -149.889 85.4018 -56.9265 -25.9973 -1.47322 15.5959 -164.343 -11.3454 24.0737 140.701 -20.9307 -2.40297 -25.7719 -2.89211 -3.52807 -13.9813 36.2257 6.37307 23.0114 -57.2498 18.6174 
-7.1460009 0.1771700 0.5744234 -35.1201 8.45229 13.2404 -115.336 4.42554 -6.9605 -60.8583 -0.0635261 11.8867 -18.6483 -4.3368 2.94611 -99.2211 77.3882 115.425 -110.494 -36.3731 -138.81 132.524 17.7187 -126.764 -61.5872 -28.0212 21.3445 4.8885 1.27695 -8.6946 73.7957 -31.0061 41.8924 40.132 8.06992 -36.325 -79.9242 17.1123 -21.4303 10.982 0.946943 4.08279 -157.161 44.7 -43.0048 -149.52 85.4182 -57.2701 -26.0179 -1.47952 15.541 -164.366 -11.2517 24.1243 140.734 -20.9857 -2.39787 -25.7739 -2.88999 -3.5047 -13.9232 36.1762 6.38472 23.0448 -57.2376 18.6531 
-7.1459407 0.1770350 0.5744733 -35.1436 8.47875 13.2342 -115.426 4.40567 -6.98577 -60.7268 -0.0746417 11.9141 -18.5508 -4.50252 3.18008 -99.09 77.4819 114.908 -110.511 -36.3765 -138.848 132.57 17.6236 -126.894 -61.7418 -27.8767 21.3044 4.77178 1.27066 -8.6672 73.836 -30.9764 41.9548 40.1494 7.93783 -36.395 -80.042 17.0011 -21.3782 11.0729 0.98033 3.45734 -157.115 44.7579 -43.0295 -148.794 85.454 -57.9895 -26.0673 -1.48515 15.5636 -164.379 -11.2096 24.1565 140.754 -20.7951 -2.38194 -25.7148 -2.88894 -3.50175 -13.9017 36.1082 6.41953 23.016 -57.2093 18.6025 
